<svg width="16" height="16" viewBox="0 0 16 16" fill="none" xmlns="http://www.w3.org/2000/svg">
  <path fill-rule="evenodd" clip-rule="evenodd" d="M14.6659 8.00072C14.6659 11.6816 11.6819 14.6655 8.00094 14.6655C4.31996 14.6655 1.33594 11.6816 1.33594 8.00072C1.33594 4.31986 4.31996 1.33594 8.00094 1.33594C11.6819 1.33594 14.6659 4.31986 14.6659 8.00072ZM10.2471 5.75462C10.4837 5.99123 10.4837 6.37486 10.2471 6.61148L8.85782 8.00072L10.2471 9.38995C10.4837 9.62657 10.4837 10.0102 10.2471 10.2468C10.0105 10.4834 9.62684 10.4834 9.39022 10.2468L8.00094 8.85757L6.61165 10.2468C6.37503 10.4834 5.99139 10.4834 5.75477 10.2468C5.51815 10.0102 5.51815 9.62657 5.75477 9.38995L7.14405 8.00072L5.75477 6.61148C5.51815 6.37486 5.51815 5.99123 5.75477 5.75462C5.99139 5.51801 6.37503 5.51801 6.61165 5.75462L8.00094 7.14386L9.39022 5.75462C9.62684 5.51801 10.0105 5.51801 10.2471 5.75462Z" fill="currentColor"/>
</svg>
