<svg width="16" height="16" viewBox="0 0 16 16" fill="none" xmlns="http://www.w3.org/2000/svg">
  <path fill-rule="evenodd" clip-rule="evenodd" d="M3.295 2.17605C3.06027 1.94132 2.67969 1.94132 2.44496 2.17605C2.21022 2.41078 2.21022 2.79136 2.44496 3.02609L3.74599 4.46049C2.65878 5.39634 1.75155 6.52565 1.07143 7.79311C0.979089 7.9652 0.976114 8.17144 1.06346 8.34612L1.60107 8.07731C1.06346 8.34612 1.06346 8.34612 1.06346 8.34612L1.06464 8.34847L1.06671 8.35258L1.07353 8.36593C1.07927 8.37708 1.08737 8.39269 1.09783 8.41245C1.11874 8.45196 1.14908 8.50814 1.18872 8.57861C1.26795 8.71947 1.3846 8.9179 1.53756 9.15475C1.84274 9.62728 2.29641 10.2588 2.89065 10.8927C4.06816 12.1487 5.86898 13.4869 8.21286 13.4869L8.22269 13.4869C9.46597 13.4665 10.675 13.0984 11.7148 12.4292L13.1393 13.651C13.3741 13.8858 13.7547 13.8858 13.9894 13.651C14.2241 13.4163 14.2241 13.0357 13.9894 12.801L12.2083 11.2226L9.91455 8.92895L9.91031 8.92471L7.36543 6.37985L7.36125 6.37567L5.06752 4.08195L3.295 2.17605ZM10.8404 11.5549L9.44491 10.1594C9.34949 10.2192 9.24976 10.2724 9.14642 10.3184C8.85149 10.4498 8.53312 10.5205 8.2103 10.5262C7.88747 10.5319 7.56681 10.4725 7.26743 10.3516C6.96806 10.2307 6.6961 10.0507 6.46779 9.82237C6.23949 9.59407 6.0595 9.32211 5.93858 9.02274C5.81766 8.72337 5.75827 8.4027 5.76397 8.07988C5.76966 7.75706 5.84033 7.43869 5.97173 7.14377C6.01778 7.04042 6.07096 6.9407 6.13077 6.84528L4.59868 5.31319C3.67496 6.09461 2.89298 7.03035 2.28784 8.07921C2.3534 8.19245 2.44012 8.33644 2.54741 8.50255C2.82451 8.93162 3.23488 9.50221 3.76766 10.0705C4.84322 11.2178 6.3466 12.2829 8.20796 12.2848C9.1369 12.2688 10.0423 12.0158 10.8404 11.5549ZM7.02748 7.74198C6.98891 7.85765 6.96809 7.97873 6.96593 8.10109C6.96308 8.2625 6.99277 8.42283 7.05323 8.57252C7.11369 8.72221 7.20369 8.85818 7.31784 8.97233C7.43199 9.08649 7.56797 9.17648 7.71766 9.23694C7.86734 9.2974 8.02768 9.32709 8.18909 9.32424C8.31145 9.32209 8.43253 9.30126 8.5482 9.26269L7.02748 7.74198Z" fill="currentColor"/>
</svg>
