<svg width="20" height="20" viewBox="0 0 20 20" fill="none" xmlns="http://www.w3.org/2000/svg">
  <g clip-path="url(#clip0_5489_254051)">
    <path
      d="M20 10C20 15.5228 15.5228 20 10 20C4.47715 20 0 15.5228 0 10C0 4.47715 4.47715 0 10 0C15.5228 0 20 4.47715 20 10Z"
      fill="#272727"/>
    <path
      d="M19.1667 10C19.1667 4.93739 15.0626 0.833333 10 0.833333C4.93739 0.833333 0.833333 4.93739 0.833333 10C0.833333 15.0626 4.93739 19.1667 10 19.1667V20C4.47715 20 0 15.5228 0 10C0 4.47715 4.47715 0 10 0C15.5228 0 20 4.47715 20 10C20 15.5228 15.5228 20 10 20V19.1667C15.0626 19.1667 19.1667 15.0626 19.1667 10Z"
      fill="#D15C29"/>
    <path
      d="M5.98958 13.348C6.24452 12.9717 6.75384 12.8652 7.13542 13.1079L9.20733 14.4279C9.37908 14.5372 9.50442 14.7057 9.55892 14.9015L10.5306 18.4009C10.5837 18.5922 10.5662 18.7967 10.4809 18.9771L9.99592 19.9992C7.91453 19.9983 5.98266 19.3612 4.38232 18.2723L4.73144 15.3695C4.74729 15.2378 4.79518 15.1118 4.86979 15.0017L5.98958 13.348ZM15.9822 10.2051L17.9737 10.4843C18.1718 10.5121 18.3531 10.61 18.4839 10.7601L19.7502 12.2143C19.1535 14.8526 17.5161 17.0938 15.2898 18.4847L14.9829 18.453C14.924 18.4468 14.8657 18.4347 14.8096 18.4163L12.7287 17.7336C12.4917 17.6557 12.3028 17.4758 12.2143 17.2437L11.4087 15.1277C11.235 14.6713 11.4945 14.1626 11.9686 14.0292L13.6393 13.5588C13.8961 13.4865 14.1037 13.2968 14.1984 13.0485L15.0789 10.7389C15.2183 10.3731 15.5942 10.1508 15.9822 10.2051ZM0.848792 6.06445L3.42529 6.69841C3.68583 6.76257 3.89842 6.94817 3.99658 7.19645L5.389 10.721C5.47632 10.9423 5.46332 11.191 5.354 11.4038L4.5459 12.9769C4.43086 13.2007 4.22112 13.3622 3.97461 13.4155L1.3916 13.9738C1.17887 14.0197 0.95835 13.9803 0.775553 13.8672C0.276215 12.6775 0 11.3711 0 10C0 8.59942 0.288988 7.26646 0.808919 6.05632C0.822208 6.0589 0.835583 6.06121 0.848792 6.06445ZM11.4218 6.23617C11.7613 6.17707 12.1017 6.33262 12.2778 6.62679L13.7647 9.11133C13.9107 9.35558 13.921 9.65792 13.7915 9.91292L12.8597 11.7472C12.7754 11.9131 12.6383 12.0468 12.4699 12.1265L10.8798 12.8776C10.6309 12.995 10.341 12.9831 10.1042 12.8458L7.24773 11.1914C7.10055 11.1061 6.9837 10.977 6.91243 10.8228L5.85531 8.5335C5.6738 8.13961 5.82775 7.67032 6.2085 7.45687L6.89616 7.07194C6.97899 7.02556 7.06965 6.99382 7.16308 6.97754L11.4218 6.23617ZM14.9773 1.32812C17.2021 2.60783 18.8862 4.7172 19.6093 7.23552L18.4952 8.29183C18.326 8.45192 18.0967 8.53392 17.8638 8.51725L16.0538 8.38708C15.8056 8.36908 15.5776 8.24157 15.4329 8.03873L13.9218 5.91716C13.7821 5.72115 13.7337 5.47452 13.7891 5.24088L14.5687 1.95231C14.5987 1.82574 14.6582 1.70745 14.742 1.60808L14.9773 1.32812ZM10 0C10.161 0 10.321 0.00387193 10.4802 0.0113932L12.0524 2.53987C12.2055 2.78619 12.2174 3.09577 12.0842 3.35531L11.3395 4.80468C11.2129 5.05103 10.9719 5.21947 10.6966 5.25472L7.09635 5.71452C6.9068 5.73863 6.71458 5.6977 6.55273 5.59814L3.76546 3.88347C3.54573 3.74822 3.40232 3.51823 3.37727 3.26172L3.30973 2.56836C5.08177 0.972067 7.42721 0 10 0Z"
      fill="#D15C29"/>
  </g>
  <defs>
    <clipPath id="clip0_5489_254051">
      <rect width="20" height="20" fill="white"/>
    </clipPath>
  </defs>
</svg>
