<svg width="20" height="20" viewBox="0 0 20 20" fill="none" xmlns="http://www.w3.org/2000/svg">
<path d="M4.45117 15.7842C5.30996 15.7843 6.00582 16.4528 6.00586 17.2773C6.00586 18.1019 5.30998 18.7704 4.45117 18.7705C3.59228 18.7705 2.89551 18.102 2.89551 17.2773C2.89555 16.4527 3.5923 15.7842 4.45117 15.7842ZM8.87891 17.0156C9.06347 17.0755 9.25148 17.1267 9.44238 17.1709C9.43825 17.2058 9.43653 17.2414 9.43652 17.2773C9.43653 17.7932 9.87185 18.2119 10.4092 18.2119C10.926 18.2119 11.3464 17.8245 11.3779 17.3359C11.5753 17.3246 11.7702 17.3042 11.9629 17.2764L11.9639 17.2773C11.9639 18.102 11.2681 18.7705 10.4092 18.7705C9.55028 18.7705 8.85352 18.102 8.85352 17.2773C8.85352 17.188 8.86323 17.1007 8.87891 17.0156ZM4.45117 16.3438C3.91387 16.3438 3.47858 16.7615 3.47852 17.2773C3.47852 17.7932 3.91383 18.2119 4.45117 18.2119C4.98844 18.2118 5.42382 17.7932 5.42383 17.2773C5.42377 16.7615 4.98841 16.3438 4.45117 16.3438ZM8.58105 17.1426C8.63361 17.1428 8.67513 17.1858 8.67383 17.2363C8.67348 17.25 8.67285 17.2636 8.67285 17.2773C8.67285 17.3623 8.6796 17.4458 8.69238 17.5273C8.70096 17.582 8.65816 17.6338 8.60059 17.6338H6.80957C6.76001 17.6337 6.72003 17.5945 6.71973 17.5469L6.71777 17.2295C6.71747 17.1815 6.7576 17.1426 6.80762 17.1426H8.58105ZM2.63086 17.1475C2.68345 17.1475 2.72475 17.1907 2.72363 17.2412C2.72337 17.2532 2.72363 17.2653 2.72363 17.2773C2.72363 17.3623 2.73038 17.4458 2.74316 17.5273C2.75172 17.5819 2.7088 17.6326 2.65137 17.6328H1.38281C1.3574 17.6327 1.33345 17.6226 1.31641 17.6045L1.02344 17.292C0.971367 17.2362 1.01273 17.1475 1.09082 17.1475H2.63086ZM6.01074 15.2051C6.19334 15.3971 6.38643 15.579 6.58984 15.749V17.5459C6.58984 17.5938 6.54984 17.6328 6.5 17.6328H6.25879C6.20146 17.6326 6.15866 17.5818 6.16699 17.5273C6.17974 17.4459 6.18652 17.3622 6.18652 17.2773C6.18651 16.5858 5.74792 15.9924 5.12305 15.7402V15.2051H6.01074ZM3.76855 14.3105C3.81836 14.3106 3.85838 14.3496 3.8584 14.3975V15.7109C3.29432 15.9077 2.86641 16.3769 2.74805 16.9531C2.73941 16.9952 2.70183 17.0263 2.65723 17.0264H1.09082C1.04096 17.0264 1 16.9873 1 16.9395V15.292C1.00003 15.2442 1.04098 15.2051 1.09082 15.2051H1.54883C1.59846 15.205 1.63841 15.1667 1.63867 15.1191V14.3975C1.63869 14.3496 1.67964 14.3105 1.72949 14.3105H3.76855ZM7.62402 16.4639C7.91692 16.6294 8.22283 16.7738 8.54004 16.8955L8.02344 16.9619C7.98906 16.9662 7.95548 16.9507 7.93652 16.9229L7.62402 16.4639ZM5.00195 15.6963C4.82893 15.6407 4.64366 15.6114 4.45117 15.6113C4.28779 15.6113 4.12938 15.6323 3.97949 15.6729V15.2051H5.00195V15.6963ZM1.8877 14.4639C1.84361 14.4639 1.8125 14.4997 1.8125 14.542V15.1338C1.8125 15.1761 1.86117 15.2051 1.90527 15.2051H2.96973C3.01373 15.2051 3.04965 15.1711 3.0498 15.1289V14.541C3.0498 14.4987 3.01383 14.4639 2.96973 14.4639H1.8877ZM3.96973 13.9932C4.01958 13.9932 4.06055 14.0322 4.06055 14.0801V14.1104C4.06055 14.1582 4.01958 14.1973 3.96973 14.1973H1.54199C1.49213 14.1973 1.45117 14.1582 1.45117 14.1104V14.0801C1.45117 14.0322 1.49213 13.9932 1.54199 13.9932H3.96973Z" fill="currentColor"/>
<path d="M11.2539 2C15.3789 2 18.7539 5.375 18.7539 9.5C18.7539 13.625 15.3789 17 11.2539 17C7.12891 17 3.75391 13.625 3.75391 9.5C3.75391 5.375 7.12891 2 11.2539 2ZM11.2539 2.4541C7.3629 2.4541 4.20816 5.60903 4.20801 9.5L4.21742 9.86203C4.4 13.4645 7.28834 16.3528 10.8908 16.5354L11.2539 16.5449C15.0232 16.5446 18.1007 13.5845 18.2893 9.86203L18.2988 9.5C18.2986 5.7306 15.3385 2.65218 11.6159 2.46352L11.2539 2.4541ZM11.2539 2.90193C14.8973 2.90217 17.8508 5.85663 17.8509 9.5C17.8507 13.1433 14.8972 16.0968 11.2539 16.097C7.61041 16.097 4.65607 13.1434 4.65583 9.5C4.65598 5.85648 7.61036 2.90193 11.2539 2.90193ZM11.7185 5.75C11.4079 5.75006 11.1566 6.00229 11.1566 6.31292V8.99254C11.1566 9.25964 11.0135 9.50693 10.782 9.64021L8.62451 10.8801C8.3637 11.0302 8.26957 11.3611 8.41211 11.6261C8.55963 11.9001 8.90367 11.9994 9.17487 11.8469L11.9005 10.314C12.1356 10.1818 12.2814 9.93297 12.2814 9.66323V6.31292C12.2814 6.00226 12.0291 5.75 11.7185 5.75Z" fill="currentColor"/>
</svg>
