<svg width="16" height="16" viewBox="0 0 16 16" fill="none" xmlns="http://www.w3.org/2000/svg">
<path fill-rule="evenodd" clip-rule="evenodd" d="M2.53368 1.67217C2.75146 1.45438 3.04684 1.33203 3.35483 1.33203H5.76343C6.07143 1.33203 6.36681 1.45438 6.58459 1.67217C6.80238 1.88995 6.92473 2.18533 6.92473 2.49332V13.5041C6.92473 13.8121 6.80238 14.1074 6.58459 14.3252C6.36681 14.543 6.07143 14.6654 5.76343 14.6654H3.35483C3.04684 14.6654 2.75146 14.543 2.53368 14.3252C2.31589 14.1074 2.19354 13.8121 2.19354 13.5041V2.49332C2.19354 2.18533 2.31589 1.88995 2.53368 1.67217ZM9.4154 1.67217C9.63318 1.45438 9.92856 1.33203 10.2366 1.33203H12.6452C12.9531 1.33203 13.2485 1.45438 13.4663 1.67217C13.6841 1.88995 13.8064 2.18533 13.8064 2.49332V13.5041C13.8064 13.8121 13.6841 14.1074 13.4663 14.3252C13.2485 14.543 12.9531 14.6654 12.6452 14.6654H10.2366C9.92856 14.6654 9.63318 14.543 9.4154 14.3252C9.19761 14.1074 9.07526 13.8121 9.07526 13.5041V2.49332C9.07526 2.18533 9.19761 1.88995 9.4154 1.67217Z" fill="currentColor"/>
</svg>
