<svg width="16" height="16" viewBox="0 0 16 16" fill="none" xmlns="http://www.w3.org/2000/svg">
<path fill-rule="evenodd" clip-rule="evenodd" d="M6.35887 2.72522C6.4725 2.61159 6.62661 2.54776 6.78731 2.54776H9.21091C9.37161 2.54776 9.52572 2.61159 9.63935 2.72522C9.75298 2.83885 9.81681 2.99297 9.81681 3.15366V3.75957H6.18141V3.15366C6.18141 2.99297 6.24524 2.83885 6.35887 2.72522ZM4.96961 3.75957V3.15366C4.96961 2.67157 5.16111 2.20923 5.502 1.86834C5.84289 1.52745 6.30522 1.33594 6.78731 1.33594H9.21091C9.693 1.33594 10.1553 1.52745 10.4962 1.86834C10.8371 2.20923 11.0286 2.67157 11.0286 3.15366V3.75957H12.2404H13.4522C13.7868 3.75957 14.0581 4.03085 14.0581 4.36548C14.0581 4.70012 13.7868 4.97139 13.4522 4.97139H12.8463V12.8482C12.8463 13.3303 12.6548 13.7926 12.3139 14.1335C11.973 14.4744 11.5107 14.6659 11.0286 14.6659H4.96961C4.48752 14.6659 4.02518 14.4744 3.6843 14.1335C3.34341 13.7926 3.1519 13.3303 3.1519 12.8482V4.97139H2.546C2.21137 4.97139 1.9401 4.70012 1.9401 4.36548C1.9401 4.03085 2.21137 3.75957 2.546 3.75957H3.7578H4.96961ZM4.36371 4.97139V12.8482C4.36371 13.0089 4.42754 13.163 4.54117 13.2767C4.6548 13.3903 4.80891 13.4541 4.96961 13.4541H11.0286C11.1893 13.4541 11.3434 13.3903 11.4571 13.2767C11.5707 13.163 11.6345 13.0089 11.6345 12.8482V4.97139H10.4227H5.57551H4.36371ZM9.81681 11.0305V7.39503C9.81681 7.06039 9.54554 6.78912 9.21091 6.78912C8.87628 6.78912 8.60501 7.06039 8.60501 7.39503V11.0305C8.60501 11.3651 8.87628 11.6364 9.21091 11.6364C9.54554 11.6364 9.81681 11.3651 9.81681 11.0305ZM6.78731 6.78912C7.12194 6.78912 7.39321 7.06039 7.39321 7.39503V11.0305C7.39321 11.3651 7.12194 11.6364 6.78731 11.6364C6.45268 11.6364 6.18141 11.3651 6.18141 11.0305V7.39503C6.18141 7.06039 6.45268 6.78912 6.78731 6.78912Z" fill="currentColor"/>
</svg>
