<svg width="28" height="18" viewBox="0 0 28 18" fill="none" xmlns="http://www.w3.org/2000/svg">
<path d="M10.7672 8.5302C12.0304 8.5302 13.0545 9.56615 13.0545 10.8441C13.0545 12.122 12.0304 13.158 10.7672 13.158C9.50395 13.158 8.47989 12.122 8.47989 10.8441C8.4799 9.56616 9.50395 8.53021 10.7672 8.5302ZM10.7673 9.39653C9.97696 9.39653 9.33627 10.0447 9.33627 10.8442C9.33628 11.6436 9.97697 12.2917 10.7673 12.2917C11.5576 12.2917 12.1982 11.6436 12.1982 10.8442C12.1982 10.0447 11.5576 9.39654 10.7673 9.39653Z" fill="#D15C29"/>
<path d="M20.7692 8.57346C22.0325 8.57346 23.0565 9.60941 23.0566 10.8873C23.0566 12.1652 22.0325 13.2012 20.7692 13.2012C19.506 13.2012 18.4819 12.1652 18.4819 10.8873C18.4819 9.60942 19.506 8.57347 20.7692 8.57346ZM20.7693 9.43979C19.979 9.43979 19.3383 10.0879 19.3383 10.8874C19.3383 11.6869 19.979 12.335 20.7693 12.335C21.5596 12.335 22.2003 11.6869 22.2003 10.8874C22.2003 10.0879 21.5596 9.4398 20.7693 9.43979Z" fill="#D15C29"/>
<path d="M20.1394 5.30371C20.2507 5.30371 20.3409 5.39391 20.3409 5.50519C20.3409 5.61646 20.2507 5.70666 20.1394 5.70666H15.0986C14.9873 5.70666 14.8971 5.61646 14.8971 5.50519C14.8971 5.39391 14.9873 5.30371 15.0986 5.30371H20.1394Z" fill="#D15C29"/>
<path d="M17.9934 11.0349C18.0923 11.0349 18.1725 11.1151 18.1725 11.214C18.1725 11.3129 18.0923 11.3931 17.9934 11.3931H14.8994C14.8005 11.3931 14.7203 11.3129 14.7203 11.214C14.7203 11.1151 14.8005 11.0349 14.8994 11.0349H17.9934Z" fill="#D15C29"/>
<path d="M25.296 7.00723C25.6829 7.00723 25.9702 7.36579 25.8859 7.74344C25.8242 8.01967 25.579 8.21609 25.296 8.21609H20.9897C20.6559 8.21609 20.3853 7.94548 20.3853 7.61166C20.3853 7.27785 20.6559 7.00723 20.9897 7.00723H25.296Z" fill="#D15C29"/>
<path d="M27 8.26678C27 8.54169 26.7771 8.76455 26.5022 8.76455C26.1812 8.76455 25.9441 8.46516 26.0177 8.15268L26.2153 7.31375C26.2576 7.13415 26.4178 7.00723 26.6023 7.00723C26.822 7.00723 27 7.18527 27 7.4049V8.26678Z" fill="#D15C29"/>
<path d="M7.92353 10.5901C8.03511 10.5901 8.12557 10.7705 8.12557 10.9931C8.12557 11.2156 8.03511 11.396 7.92353 11.396H6.77858C6.66699 11.396 6.57653 11.2156 6.57653 10.9931C6.57653 10.7705 6.66699 10.5901 6.77858 10.5901H7.92353Z" fill="#D15C29"/>
<path d="M2.54904 12.1996C2.64681 12.1996 2.72607 12.2798 2.72607 12.3787C2.72607 12.4776 2.64681 12.5578 2.54904 12.5578H1.17703C1.07926 12.5578 1 12.4776 1 12.3787C1 12.2798 1.07926 12.1996 1.17703 12.1996H2.54904Z" fill="#D15C29"/>
<path d="M19.8744 5.33521C20.035 5.33521 20.1652 5.4669 20.1652 5.62934V8.18604C20.1652 8.2949 20.0958 8.39132 19.9934 8.42481L19.8286 8.47877C18.9148 8.77761 18.2835 9.62296 18.2491 10.5939C18.2448 10.7157 18.1459 10.8122 18.0254 10.8122H15.0186C14.858 10.8122 14.7279 10.6805 14.7279 10.5181V7.65577C14.7279 7.49504 14.8567 7.36475 15.0155 7.36475C15.1744 7.36474 15.3032 7.23445 15.3032 7.07373V5.62934C15.3032 5.4669 15.4334 5.33521 15.594 5.33521H19.8744ZM16.618 5.80589C16.4575 5.80589 16.3273 5.93757 16.3273 6.10002V7.21771C16.3273 7.38014 16.4575 7.51183 16.618 7.51183H16.9669C17.1275 7.51183 17.2577 7.38014 17.2577 7.21771V6.10002C17.2577 5.93757 17.1275 5.80589 16.9669 5.80589H16.618ZM19.0022 5.80589C18.8416 5.80589 18.7114 5.93757 18.7114 6.10002V7.21771C18.7114 7.38014 18.8416 7.51182 19.0022 7.51183H19.3511C19.5117 7.51183 19.6418 7.38014 19.6418 7.21771V6.10002C19.6418 5.93757 19.5117 5.80589 19.3511 5.80589H19.0022Z" fill="#D15C29"/>
<path d="M2.87545 11.4588C2.85897 11.4934 2.86123 11.5343 2.88146 11.5669C2.90171 11.5994 2.93712 11.6192 2.97517 11.6192L6.91117 11.6192C6.79043 12.1575 6.31455 12.5595 5.74585 12.5595H1.70844C1.61059 12.5595 1.54637 12.456 1.58885 12.3668L3.23121 8.91934C3.25334 8.87289 3.29982 8.84335 3.3508 8.84335H4.11979L2.87545 11.4588ZM5.74585 8.84335C6.40581 8.84335 6.94082 9.38457 6.94082 10.0522V11.3506C6.94082 11.3656 6.94049 11.3805 6.93996 11.3954H3.15116L4.36537 8.84335H5.74585Z" fill="#D15C29"/>
<path d="M12.0932 7.26947L11.5423 8.42796C11.2979 8.34929 11.0376 8.3068 10.7674 8.3068C9.35752 8.30682 8.21458 9.46303 8.21457 10.8893C8.21457 11.0628 8.23152 11.2322 8.26375 11.3961H7.2363C7.07391 11.3961 6.96683 11.225 7.03628 11.0765L8.7735 7.36199C8.81047 7.28293 8.88958 7.2329 8.97603 7.23388L12.0932 7.26947ZM12.6204 7.27551C12.701 7.27643 12.7747 7.32159 12.8128 7.39338L14.4729 10.5181C14.4902 10.5507 14.4992 10.5871 14.4992 10.6241V11.1722C14.4992 11.2959 14.4001 11.3961 14.2779 11.3961H13.2711C13.3033 11.2322 13.3203 11.0628 13.3203 10.8893C13.3203 9.81569 12.6726 8.89514 11.751 8.50552L12.3375 7.27227L12.6204 7.27551Z" fill="#D15C29"/>
<path d="M23.5908 8.48365C23.63 8.48365 23.6671 8.50115 23.6923 8.53144L24.0085 8.91118C24.0337 8.94147 24.0709 8.95896 24.1101 8.95896H26.8472C26.9205 8.95896 26.9799 9.0191 26.9799 9.09328V10.1599C26.9799 10.2132 26.9487 10.2616 26.9003 10.2829L24.4122 11.3826C24.3954 11.39 24.3773 11.3939 24.359 11.3939H23.29C23.2771 11.3939 23.2643 11.3919 23.2521 11.3883C23.2829 11.2307 23.2991 11.068 23.2991 10.9014C23.2991 9.74738 22.5247 8.7755 21.4705 8.48365H23.5908Z" fill="#D15C29"/>
</svg>
