<svg width="24" height="24" viewBox="0 0 24 24" fill="none" xmlns="http://www.w3.org/2000/svg">
  <path fill-rule="evenodd" clip-rule="evenodd"
        d="M4.03142 16.6751C3.77712 15.5308 3.66667 14.0207 3.66667 12C3.66667 9.97929 3.77712 8.46923 4.03142 7.32494C4.28153 6.19958 4.64807 5.5327 5.09039 5.09039C5.5327 4.64807 6.19958 4.28153 7.32494 4.03143C8.46923 3.77712 9.97929 3.66667 12 3.66667C14.0207 3.66667 15.5308 3.77712 16.6751 4.03143C17.8004 4.28153 18.4673 4.64807 18.9096 5.09039C19.3519 5.5327 19.7185 6.19958 19.9686 7.32494C20.2229 8.46923 20.3333 9.97929 20.3333 12C20.3333 14.0207 20.2229 15.5308 19.9686 16.6751C19.7185 17.8004 19.3519 18.4673 18.9096 18.9096C18.4673 19.3519 17.8004 19.7185 16.6751 19.9686C15.5308 20.2229 14.0207 20.3333 12 20.3333C9.97929 20.3333 8.46923 20.2229 7.32494 19.9686C6.19958 19.7185 5.5327 19.3519 5.09039 18.9096C4.64807 18.4673 4.28153 17.8004 4.03142 16.6751ZM12 22C3.765 22 2 20.235 2 12C2 3.765 3.765 2 12 2C20.235 2 22 3.765 22 12C22 20.235 20.235 22 12 22Z"
        fill="currentColor"/>
</svg>
