<svg width="16" height="16" viewBox="0 0 16 16" fill="none" xmlns="http://www.w3.org/2000/svg">
  <path fill-rule="evenodd" clip-rule="evenodd"
        d="M1.33398 7.99967C1.33398 4.31785 4.31883 1.33301 8.00065 1.33301C11.6825 1.33301 14.6673 4.31785 14.6673 7.99967C14.6673 11.6815 11.6825 14.6663 8.00065 14.6663C4.31883 14.6663 1.33398 11.6815 1.33398 7.99967ZM6.01234 13.1888C4.81781 12.7308 3.82167 11.8722 3.18836 10.7775H5.38132C5.46238 11.3976 5.57768 11.9699 5.73427 12.4709C5.81155 12.7182 5.90345 12.9606 6.01234 13.1888ZM6.50262 10.7775C6.57474 11.2857 6.6713 11.7443 6.79481 12.1395C7.12972 13.2112 7.56468 13.5552 8.00065 13.5552C8.43662 13.5552 8.87158 13.2112 9.20649 12.1395C9.33 11.7443 9.42656 11.2857 9.49868 10.7775H6.50262ZM9.61335 9.66634H6.38795C6.35132 9.1414 6.33398 8.58228 6.33398 7.99967C6.33398 7.41707 6.35132 6.85795 6.38795 6.33301H9.61335C9.64998 6.85795 9.66732 7.41707 9.66732 7.99967C9.66732 8.58228 9.64998 9.1414 9.61335 9.66634ZM10.62 10.7775C10.5389 11.3976 10.4236 11.9699 10.267 12.4709C10.1898 12.7182 10.0978 12.9606 9.98896 13.1888C11.1835 12.7308 12.1796 11.8722 12.8129 10.7775H10.62ZM13.3019 9.66634H10.7271C10.7625 9.12913 10.7784 8.56954 10.7784 7.99967C10.7784 7.42981 10.7625 6.87022 10.7271 6.33301H13.3019C13.4671 6.85914 13.5562 7.41901 13.5562 7.99967C13.5562 8.58034 13.4671 9.1402 13.3019 9.66634ZM12.8129 5.2219C12.1796 4.12714 11.1835 3.26853 9.98896 2.81053C10.0978 3.03872 10.1898 3.28113 10.267 3.52841C10.4236 4.02949 10.5389 4.60174 10.62 5.2219H12.8129ZM9.49868 5.2219C9.42656 4.71363 9.33 4.25504 9.20649 3.85983C8.87158 2.7881 8.43662 2.44412 8.00065 2.44412C7.56468 2.44412 7.12972 2.7881 6.79481 3.85983C6.6713 4.25504 6.57474 4.71363 6.50262 5.2219H9.49868ZM5.38132 5.2219C5.46238 4.60174 5.57768 4.02949 5.73427 3.52841C5.81155 3.28113 5.90345 3.03872 6.01234 2.81053C4.81781 3.26853 3.82167 4.12714 3.18836 5.2219H5.38132ZM2.69945 6.33301C2.53419 6.85914 2.4451 7.41901 2.4451 7.99967C2.4451 8.58034 2.53419 9.1402 2.69945 9.66634H5.27423C5.23877 9.12913 5.22287 8.56954 5.22287 7.99967C5.22287 7.42981 5.23877 6.87022 5.27423 6.33301H2.69945Z"
        fill="currentColor"/>
</svg>
