<svg width="16" height="16" viewBox="0 0 16 16" fill="none" xmlns="http://www.w3.org/2000/svg">
  <path
    d="M8.00065 1.33301C8.88471 1.33301 9.73255 1.6842 10.3577 2.30932C10.9828 2.93444 11.334 3.78229 11.334 4.66634C11.334 5.5504 10.9828 6.39824 10.3577 7.02336C9.73255 7.64849 8.88471 7.99967 8.00065 7.99967C7.1166 7.99967 6.26875 7.64849 5.64363 7.02336C5.01851 6.39824 4.66732 5.5504 4.66732 4.66634C4.66732 3.78229 5.01851 2.93444 5.64363 2.30932C6.26875 1.6842 7.1166 1.33301 8.00065 1.33301ZM8.00065 9.66634C11.684 9.66634 14.6673 11.158 14.6673 12.9997V14.6663H1.33398V12.9997C1.33398 11.158 4.31732 9.66634 8.00065 9.66634Z"
    fill="currentColor"/>
</svg>
