<svg width="20" height="20" viewBox="0 0 20 20" fill="none" xmlns="http://www.w3.org/2000/svg">
  <path d="M13.1017 5.18204C12.7725 5.39587 12.3487 5.39735 12.018 5.18584L7.98871 2.60832C7.64937 2.39124 7.21291 2.39897 6.88148 2.62793L2.43163 5.70183C2.16135 5.88854 2 6.1961 2 6.52461V16.1579C2 16.9512 2.87949 17.4287 3.54476 16.9965L6.89834 14.818C7.2275 14.6041 7.65132 14.6026 7.98197 14.8142L12.0113 17.3917C12.3506 17.6088 12.7871 17.601 13.1185 17.3721L17.5684 14.2982C17.8387 14.1115 18 13.8039 18 13.4754V3.84209C18 3.04878 17.1205 2.57133 16.4552 3.0035L13.1017 5.18204ZM12 14.0612C12 14.8524 11.1248 15.3302 10.4592 14.9024L8.45924 13.6167C8.17302 13.4327 8 13.1157 8 12.7755V5.93881C8 5.14764 8.87525 4.6698 9.54076 5.09763L11.5408 6.38334C11.827 6.56734 12 6.88426 12 7.22452V14.0612Z" fill="currentColor"/>
</svg>
