<svg width="21" height="15" viewBox="0 0 21 15" fill="none" xmlns="http://www.w3.org/2000/svg">
  <path d="M20.3503 13.7615C20.7092 13.7616 20.9999 14.039 21 14.3807C21 14.7225 20.7092 14.9999 20.3503 15H0.650364C0.291509 14.9998 4.48821e-05 14.7225 0 14.3807C9.0863e-05 14.0391 0.291537 13.7616 0.650364 13.7615H20.3503ZM16.2394 0.00537321C18.5292 0.115966 20.3503 1.91884 20.3503 4.12663V8.79528L20.3447 9.00752C20.2324 11.1176 18.4553 12.8095 16.2394 12.9165L16.0165 12.9219H4.98425C2.59088 12.9217 0.650409 11.0742 0.650364 8.79528V4.12663C0.650389 1.84768 2.59087 0.000165242 4.98425 0H16.0165L16.2394 0.00537321ZM8.96826 8.00273C8.77986 7.86235 8.5134 7.88569 8.32847 8.03027L3.90078 11.4933C4.23731 11.6159 4.60245 11.684 4.98425 11.6841H13.8982L8.96826 8.00273ZM9.42535 6.48077C9.34228 6.73415 9.40713 7.01942 9.62638 7.18332L15.6546 11.6841H16.0165C17.6918 11.6839 19.0496 10.3905 19.0496 8.79528V4.12663C19.0496 2.53138 17.6918 1.23799 16.0165 1.23785H11.1458L9.42535 6.48077ZM4.98425 1.23785C3.30893 1.23802 1.95041 2.5314 1.95039 4.12663V8.79528C1.95041 9.63471 2.32685 10.3906 2.92735 10.9184L7.64072 7.23302C7.99371 6.95677 8.25491 6.58773 8.39125 6.17248L10.0108 1.23785H4.98425ZM13.3226 6.50696C13.5761 6.50714 13.7818 6.70707 13.7818 6.95361C13.7816 7.2 13.576 7.39941 13.3226 7.39959C13.069 7.39959 12.8629 7.20011 12.8627 6.95361C12.8627 6.70695 13.0689 6.50696 13.3226 6.50696ZM16.6139 6.50696C16.8676 6.50699 17.0731 6.70697 17.0731 6.95361C17.0729 7.2001 16.8674 7.39956 16.6139 7.39959C16.3604 7.39959 16.1549 7.20011 16.1547 6.95361C16.1547 6.70695 16.3603 6.50696 16.6139 6.50696ZM13.2471 5.31545C13.3063 5.31547 13.3543 5.36269 13.3543 5.42023V5.66337C13.3543 5.72092 13.4024 5.76815 13.4616 5.76815H14.2756C14.3348 5.76815 14.3828 5.8147 14.3828 5.87225V6.15166C14.3828 6.20921 14.4308 6.25644 14.49 6.25644H14.7044C14.796 6.25644 14.8452 6.15141 14.7856 6.08382L14.5323 5.79703C14.5158 5.77816 14.5069 5.75399 14.5069 5.72919V5.6009C14.5069 5.54335 14.555 5.4968 14.6142 5.4968H17.6861C17.7176 5.49684 17.7476 5.51035 17.7679 5.53374L18.0261 5.92263C18.0645 5.96684 18.0585 6.03339 18.0127 6.07039L17.7658 6.33435C17.7466 6.3499 17.7217 6.35853 17.6967 6.35853H17.5316C17.4725 6.35853 17.4787 6.40516 17.4787 6.46263V6.95831C17.4786 7.01677 17.4288 7.06391 17.3687 7.06242L17.32 7.06108C17.2827 7.05997 17.2546 7.02818 17.2544 6.9919C17.2544 6.64565 16.9658 6.36458 16.6097 6.36457C16.2536 6.36459 15.965 6.64566 15.965 6.9919C15.9648 7.01136 15.949 7.02746 15.929 7.02749H13.9976C13.9776 7.02749 13.9611 7.01138 13.961 6.9919C13.961 6.64565 13.6723 6.36457 13.3162 6.36457C12.9603 6.36471 12.6715 6.64573 12.6715 6.9919C12.6714 7.01138 12.6556 7.02749 12.6356 7.02749H11.5923C11.5331 7.02749 11.4851 6.98094 11.4851 6.92339V5.87225C11.4851 5.8147 11.5331 5.76815 11.5923 5.76815H11.8364C11.8955 5.76815 11.9436 5.72092 11.9436 5.66337V5.42023C11.9436 5.36275 11.9917 5.31557 12.0508 5.31545H13.2471ZM5.24877 2.91766C6.09465 2.91782 6.78058 3.56712 6.78086 4.36775C6.78086 5.24962 5.97363 5.83385 5.53092 6.08785C5.35569 6.1883 5.14113 6.18833 4.96591 6.08785C4.52321 5.83386 3.71667 5.24964 3.71667 4.36775C3.71695 3.56702 4.40273 2.91766 5.24877 2.91766ZM5.24806 3.74647C4.88555 3.74647 4.59159 4.02468 4.59135 4.36775C4.59135 4.71102 4.8854 4.9897 5.24806 4.9897C5.61051 4.98946 5.90477 4.71087 5.90477 4.36775C5.90453 4.02483 5.61035 3.74671 5.24806 3.74647Z" fill="currentColor"/>
</svg>
