<svg width="384" height="148" viewBox="0 0 384 148" fill="none" xmlns="http://www.w3.org/2000/svg">
<path d="M130 111.5C130 127.24 117.464 140 102 140C86.5361 140 74 127.24 74 111.5C74 95.7599 86.5361 83 102 83C117.464 83 130 95.7599 130 111.5Z" fill="white"/>
<path d="M130 111.5C130 127.24 117.464 140 102 140C86.5361 140 74 127.24 74 111.5C74 95.7599 86.5361 83 102 83C117.464 83 130 95.7599 130 111.5Z" fill="white"/>
<path d="M130 111.5C130 127.24 117.464 140 102 140C86.5361 140 74 127.24 74 111.5C74 95.7599 86.5361 83 102 83C117.464 83 130 95.7599 130 111.5Z" fill="white"/>
<path d="M317 111.5C317 127.24 304.464 140 289 140C273.536 140 261 127.24 261 111.5C261 95.7599 273.536 83 289 83C304.464 83 317 95.7599 317 111.5Z" fill="white"/>
<path d="M109.712 21.8751C109.712 26.7696 113.562 30.7373 118.312 30.7373H148.002C152.752 30.7373 156.602 34.7051 156.602 39.5996V56.2827C156.602 60.4492 159.88 63.8267 163.923 63.8267C167.967 63.8267 171.244 60.4492 171.244 56.2827V21.223C171.244 16.3285 175.094 12.3608 179.844 12.3608H335.4C340.15 12.3608 344 16.3285 344 21.223V88.9473C344 93.8082 340.201 97.7618 335.483 97.8092L332.611 97.8379C329.064 97.8734 325.933 95.6123 324.159 92.4462C317.043 79.7422 303.744 71.1902 288.486 71.1831C270.883 71.1831 255.862 82.5507 249.955 98.5542C249.928 98.6273 249.86 98.6758 249.783 98.6758C249.683 98.6758 249.602 98.7598 249.602 98.8634V99.1783C249.602 99.3807 249.483 99.5634 249.302 99.6416L212.817 115.411C211.763 115.866 210.633 116.1 209.491 116.1H145.858C144.563 116.1 143.613 114.982 143.613 113.648C143.613 90.1929 125.165 71.1584 102.404 71.1542C79.6413 71.1542 61.1686 90.1903 61.1686 113.648C61.1689 114.982 60.2185 116.1 58.9244 116.1H8.6C3.85035 116.1 0 112.133 0 107.239V39.5996C0 34.7051 3.85035 30.7373 8.6 30.7373H15.8394C20.5891 30.7373 24.4394 26.7696 24.4394 21.8751V8.96239C24.4394 4.06788 28.2898 0.100098 33.0395 0.100098H101.112C105.862 0.100098 109.712 4.06788 109.712 8.96239V21.8751Z" fill="white"/>
</svg>
